<svg width="141" height="25" viewBox="0 0 141 25" xmlns="http://www.w3.org/2000/svg"><path d="M29.2137684 12.5892857C30.5213129 13.6785714 31.6139186 14.9285714 32.2766467 16.3214286 35.1783208 22.3609023 35.3310405 23.8487337 35.3390783 23.9886177L35.3395249 24 35.3395249 24C35.3395249 24 33.9424225 23.4821429 26.8136182 23.0714286 21.7267327 22.7678571 19.3265825 20.6428571 18.395181 19.5 18.4489157 19.5 18.4489157 19.4464286 18.5026504 19.4464286 18.6638545 19.3928571 18.8071471 19.2857143 18.9683512 19.1785714 19.4877867 18.9107143 20.0609569 18.6071429 20.6341271 18.25 22.4073723 17.2678571 24.1089714 16.2321429 25.7210125 15.1428571 27.0822918 14.25 28.2286321 13.4285714 29.2137684 12.5892857ZM6.55563412 12.5892857C7.5945051 13.4285714 8.74084549 14.25 10.0842131 15.1428571 11.6962543 16.2321429 13.3978533 17.2678571 15.1710986 18.25 15.7442688 18.6071429 16.317439 18.9107143 16.8368745 19.1785714 16.9980786 19.2857143 17.1413712 19.3928571 17.3025753 19.4464286 17.35631 19.4464286 17.35631 19.5 17.4100447 19.5 16.4786431 20.6428571 14.0784929 22.7678571 8.99160745 23.0714286 1.86280314 23.4821429.465700784 24 .465700784 24L.465700784 24C.469493692 23.9022776.573798672 22.4727444 3.54649059 16.3214286 4.20921863 14.9285714 5.30182431 13.6785714 6.55563412 12.5892857ZM35.8231372 3.62830333e-15C35.8231372 3.62830333e-15 35.4111712 4.71428571 31.9363269 9.125 28.443571 13.5357143 18.4130925 18.6071429 18.4130925 18.6071429L18.4130925 18.6071429 18.4130925 5.96428571C18.4130925 3.10714286 22.461107 1.5 26.5628563 1.30357143 27.3517275 1.26253799 28.1780354 1.18941991 28.9985161 1.09800952L29.5441652 1.03451066C32.8071826.639073918 35.8231372 3.62830333e-15 35.8231372 3.62830333e-15ZM0 3.62830333e-15C0 3.62830333e-15 3.01595463.639073918 6.27897204 1.03451066L6.82462111 1.09800952C7.64510183 1.18941991 8.47140976 1.26253799 9.26028098 1.30357143 13.3620302 1.5 17.4100447 3.10714286 17.4100447 5.96428571L17.4100447 18.6071429C17.4100447 18.6071429 7.37956627 13.5357143 3.88681039 9.125.411966078 4.71428571 0 3.62830333e-15 0 3.62830333e-15ZM57.9387635.355932203 57.9387635 3.76271186 50.9514302 3.76271186 50.9514302 24 47.2282527 24 47.2282527 3.76271186 40.2919218 3.76271186 40.2919218.355932203 57.9387635.355932203ZM70.3323547.355932203C71.6584179.355932203 72.9844812.661016949 74.0555323 1.11864407 75.2285882 1.57627119 76.146632 2.28813559 77.0136733 3.05084746 77.8807147 3.81355932 78.4927439 4.98305085 78.9517658 6.15254237 79.4107877 7.47457627 79.7168023 8.79661017 79.7168023 10.4237288 79.7168023 11.0338983 79.7168023 11.440678 79.563795 11.5932203 79.4107877 11.7457627 79.1047731 11.8983051 78.7987585 11.8983051L63.7020384 11.8983051C63.7020384 13.3728814 64.008053 14.5423729 64.3140676 15.6101695 64.6200822 16.6271186 65.181109 17.5423729 65.7931382 18.2542373 66.4051674 18.9661017 67.1192014 19.4237288 68.0372452 19.8813559 68.9042866 20.1864407 69.8223303 20.4915254 70.9953863 20.4915254 72.0154349 20.4915254 72.9334787 20.3389831 73.4945055 20.1864407 74.1065347 20.0338983 74.8205687 19.7288136 75.4325979 19.4237288 76.0446271 19.1186441 76.2996393 18.9661017 76.7586612 18.6610169 77.0646758 18.3559322 77.3706904 18.3559322 77.6257025 18.3559322 77.9317171 18.3559322 78.2377317 18.5084746 78.390739 18.8135593L79.563795 20.2881356C79.1047731 20.8983051 78.5437463 21.4576271 77.7787098 21.9152542 77.0136733 22.3728814 76.2996393 22.6779661 75.5346028 22.9322034 74.7695663 23.2372881 73.902525 23.3898305 73.1884909 23.5423729 72.3214495 23.6949153 71.5564131 23.6949153 70.6893717 23.6949153 69.0572939 23.6949153 67.7312306 23.3898305 66.4051674 22.9322034 65.0791041 22.4745763 63.9060482 21.6101695 62.9880044 20.5932203 61.9679557 19.5762712 61.2029192 18.3559322 60.7438973 16.779661 60.1318681 15.3050847 59.9788608 13.5254237 59.9788608 11.5932203 59.9788608 9.96610169 60.2848754 8.49152542 60.7438973 7.16949153 61.2029192 5.84745763 61.9169533 4.6779661 62.8349971 3.61016949 63.7020384 2.59322034 64.9260968 1.83050847 66.2521601 1.27118644 67.5272209.661016949 68.7512793.355932203 70.3323547.355932203ZM70.485362 3.30508475C68.5472695 3.30508475 67.068199 3.91525424 65.895143 4.93220339 64.8750944 6.10169492 64.1100579 7.57627119 63.8040433 9.50847458L76.0956296 9.50847458C76.0956296 8.6440678 75.9426223 7.72881356 75.6366077 7.01694915 75.3305931 6.25423729 75.0245785 5.54237288 74.4635517 5.08474576 74.0045298 4.47457627 73.4435031 4.06779661 72.6784666 3.76271186 72.1174398 3.45762712 71.4034058 3.30508475 70.485362 3.30508475ZM97.8736683 4.47457627C97.720661 4.77966102 97.4146464 4.93220339 97.006627 4.93220339 96.7006124 4.93220339 96.5476051 4.77966102 96.2415905 4.62711864 95.9355759 4.47457627 95.6295613 4.3220339 95.2215418 4.01694915 94.7625199 3.86440678 94.3545005 3.55932203 93.7424713 3.40677966 93.1304421 3.25423729 92.5694153 3.10169492 91.6513715 3.10169492 90.886335 3.10169492 90.3253083 3.25423729 89.8662864 3.40677966 89.2542572 3.55932203 88.8462377 3.86440678 88.5402231 4.16949153 88.0812012 4.47457627 87.7751866 4.77966102 87.6731818 5.18644068 87.5201745 5.6440678 87.3671672 6.05084746 87.3671672 6.50847458 87.3671672 7.11864407 87.5201745 7.52542373 87.8261891 7.98305085 88.1322037 8.44067797 88.5912256 8.74576271 89.1522523 9 89.7642815 9.30508475 90.3253083 9.61016949 91.0903448 9.76271186 91.8553813 9.91525424 92.5694153 10.220339 93.3344518 10.5254237 94.0994883 10.8305085 94.8135224 11.1355932 95.5785588 11.3898305 96.3435953 11.6949153 96.9046221 12.1525424 97.5166513 12.559322 98.1286805 13.0169492 98.5366999 13.5762712 98.8427145 14.1864407 99.1487291 14.7966102 99.3017364 15.6610169 99.3017364 16.5254237 99.3017364 17.5423729 99.1487291 18.6101695 98.6897072 19.4745763 98.2306853 20.3389831 97.8226659 21.1016949 97.0576294 21.8135593 96.2925929 22.4237288 95.4255515 22.9830508 94.4055029 23.2881356 93.3854542 23.5932203 92.1613959 23.8983051 90.6823253 23.8983051 89.0502475 23.8983051 87.7241842 23.5932203 86.398121 23.1355932 85.0720577 22.6779661 84.0520091 21.9661017 83.1339653 21.2033898L84.0010066 19.7288136C84.1540139 19.5762712 84.3070212 19.4237288 84.4600285 19.2711864 84.6130358 19.1186441 84.9190504 19.1186441 85.0720577 19.1186441 85.225065 19.1186441 85.6840869 19.2711864 85.9390991 19.4237288 86.2451137 19.5762712 86.5511283 19.8813559 86.9591477 20.1864407 87.4181696 20.4915254 87.8261891 20.6440678 88.4382183 20.9491525 89.0502475 21.1016949 89.7642815 21.2542373 90.6823253 21.2542373 91.4473618 21.2542373 92.1613959 21.1016949 92.773425 20.9491525 93.3854542 20.7966102 93.7934737 20.4915254 94.2524956 20.0847458 94.7115175 19.779661 95.0175321 19.3220339 95.119537 18.9152542 95.2725442 18.4576271 95.4255515 18.0508475 95.4255515 17.440678 95.4255515 16.8305085 95.2725442 16.2711864 94.9665297 15.8135593 94.6605151 15.3559322 94.0994883 14.7966102 93.6404664 14.4915254 93.0284372 14.1864407 92.4674105 13.8813559 91.702374 13.7288136 90.9373375 13.5762712 90.2233034 13.2711864 89.4582669 12.9661017 88.6932304 12.6610169 87.9791964 12.5084746 87.2141599 12.1016949 86.4491234 11.6440678 85.8880966 11.3389831 85.2760674 10.9322034 84.6640383 10.4745763 84.2560188 9.91525424 83.9500042 9.15254237 83.6439896 8.38983051 83.4909823 7.6779661 83.4909823 6.66101695 83.4909823 5.79661017 83.6439896 5.03389831 84.1030115 4.16949153 84.4090261 3.40677966 84.9700528 2.69491525 85.7350893 2.08474576 86.5001258 1.47457627 87.2141599 1.06779661 88.2342085.610169492 89.2542572.152542373 90.3253083 6.5032725e-13 91.6513715 6.5032725e-13 93.1304421 6.5032725e-13 94.4565053.305084746 95.6295613.762711864 96.8026172 1.22033898 97.8736683 1.93220339 98.7407097 2.69491525L97.8736683 4.47457627ZM117.305595 4.47457627C117.152588 4.77966102 116.846573 4.93220339 116.438554 4.93220339 116.132539 4.93220339 115.979532 4.77966102 115.673517 4.62711864 115.367503 4.47457627 115.061488 4.3220339 114.653469 4.01694915 114.194447 3.86440678 113.786427 3.55932203 113.174398 3.40677966 112.562369 3.25423729 112.001342 3.10169492 111.083298 3.10169492 110.318262 3.10169492 109.757235 3.25423729 109.298213 3.40677966 108.686184 3.55932203 108.278165 3.86440678 107.97215 4.16949153 107.513128 4.47457627 107.207113 4.77966102 107.105109 5.18644068 106.952101 5.6440678 106.799094 6.05084746 106.799094 6.50847458 106.799094 7.11864407 106.952101 7.52542373 107.258116 7.98305085 107.564131 8.44067797 108.023152 8.74576271 108.584179 9 109.196208 9.30508475 109.757235 9.61016949 110.522272 9.76271186 111.287308 9.91525424 112.001342 10.220339 112.766379 10.5254237 113.531415 10.8305085 114.245449 11.1355932 115.010486 11.3898305 115.775522 11.6949153 116.336549 12.1525424 116.948578 12.559322 117.560607 13.0169492 117.968627 13.5762712 118.274641 14.1864407 118.580656 14.7966102 118.733663 15.6610169 118.733663 16.5254237 118.733663 17.5423729 118.580656 18.6101695 118.121634 19.4745763 117.662612 20.3389831 117.254593 21.1016949 116.489556 21.8135593 115.72452 22.5762712 114.857478 22.9830508 113.83743 23.2881356 112.817381 23.5932203 111.593323 23.8983051 110.114252 23.8983051 108.482174 23.8983051 107.156111 23.5932203 105.830048 23.1355932 104.503985 22.6779661 103.483936 21.9661017 102.565892 21.2033898L103.432933 19.7288136C103.585941 19.5762712 103.738948 19.4237288 103.891955 19.2711864 104.044963 19.1186441 104.350977 19.1186441 104.503985 19.1186441 104.656992 19.1186441 105.116014 19.2711864 105.371026 19.4237288 105.677041 19.5762712 105.983055 19.8813559 106.391075 20.1864407 106.850096 20.4915254 107.258116 20.6440678 107.870145 20.9491525 108.482174 21.1016949 109.196208 21.2542373 110.114252 21.2542373 110.879289 21.2542373 111.593323 21.1016949 112.205352 20.9491525 112.817381 20.7966102 113.225401 20.4915254 113.684422 20.0847458 114.143444 19.779661 114.449459 19.3220339 114.551464 18.9152542 114.704471 18.4576271 114.857478 18.0508475 114.857478 17.440678 114.857478 16.8305085 114.704471 16.2711864 114.398457 15.8135593 114.092442 15.3559322 113.63342 15.0508475 113.072393 14.7966102 112.460364 14.4915254 111.899337 14.1864407 111.134301 14.0338983 110.369264 13.8813559 109.65523 13.5762712 108.890194 13.2711864 108.125157 12.9661017 107.411123 12.8135593 106.646087 12.4067797 105.88105 12.1016949 105.320023 11.6440678 104.707994 11.2372881 104.095965 10.779661 103.687946 10.220339 103.381931 9.45762712 103.075916 8.69491525 102.922909 7.98305085 102.922909 6.96610169 102.922909 6.10169492 103.075916 5.33898305 103.534938 4.47457627 103.840953 3.71186441 104.40198 3 105.167016 2.38983051 105.932053 1.77966102 106.646087 1.37288136 107.666135.915254237 108.686184.457627119 109.757235.305084746 111.083298.305084746 112.562369.305084746 113.888432.610169492 115.061488 1.06779661 116.234544 1.52542373 117.305595 2.23728814 118.172637 3L117.305595 4.47457627ZM140.358695 23.3898305 138.57361 23.3898305C138.114588 23.3898305 137.808573 23.3898305 137.706568 23.2372881 137.400554 23.0847458 137.247546 22.779661 137.247546 22.4745763L136.788524 20.3898305C136.176495 21 135.615469 21.4067797 135.003439 21.8644068 134.39141 22.3220339 133.830383 22.6271186 133.218354 22.8813559 132.606325 23.1864407 131.892291 23.3389831 131.127254 23.4915254 130.362218 23.6440678 129.648184 23.7966102 128.781143 23.7966102 127.914101 23.7966102 126.996057 23.6440678 126.282023 23.4915254 125.516987 23.3389831 124.802953 22.8813559 124.190924 22.4745763 123.578894 22.0169492 123.170875 21.3050847 122.86486 20.5423729 122.558846 19.779661 122.405838 18.9152542 122.405838 17.8983051 122.405838 17.0338983 122.711853 16.1186441 123.170875 15.4067797 123.629897 14.5423729 124.496938 13.779661 125.516987 13.1694915 126.537035 12.559322 128.016106 12 129.801191 11.5423729 131.586276 11.0847458 133.779381 10.9322034 136.329503 10.779661L136.329503 9C136.329503 7.22033898 135.870481 5.89830508 135.156447 5.03389831 134.39141 4.16949153 133.218354 3.71186441 131.739284 3.71186441 130.719235 3.71186441 129.954198 3.86440678 129.240164 4.01694915 128.628135 4.3220339 128.067108 4.62711864 127.455079 4.88135593 126.996057 5.18644068 126.588038 5.49152542 126.282023 5.74576271 125.976009 6.05084746 125.516987 6.05084746 125.261975 6.05084746 124.95596 6.05084746 124.802953 6.05084746 124.496938 5.89830508 124.190924 5.74576271 124.190924 5.59322034 124.037916 5.28813559L123.578894 3.81355932C124.75195 2.6440678 126.231021 1.72881356 127.557084 1.16949153 129.036155.559322034 130.668233.305084746 132.453318.305084746 133.779381.305084746 134.79943.457627119 135.870481.915254237 136.941532 1.37288136 137.655566 1.93220339 138.3696 2.69491525 139.134636 3.45762712 139.542656 4.3220339 139.84867 5.33898305 140.154685 6.3559322 140.307692 7.57627119 140.307692 8.89830508L140.307692 23.3898305 140.358695 23.3898305ZM130.005201 20.8983051C130.770237 20.8983051 131.331264 20.8983051 131.943293 20.7457627 132.555323 20.5932203 133.116349 20.440678 133.575371 20.1355932 134.034393 19.8305085 134.59542 19.5254237 135.054442 19.2711864 135.513464 18.8135593 135.921483 18.5084746 136.380505 17.9491525L136.380505 13.220339C134.59542 13.220339 132.963342 13.3728814 131.637279 13.6779661 130.311216 13.9830508 129.291167 14.2881356 128.52613 14.5423729 127.761094 15 127.200067 15.4067797 126.741045 15.8644068 126.282023 16.3220339 126.129016 16.8813559 126.129016 17.4915254 126.129016 18.1016949 126.282023 18.6610169 126.435031 18.9661017 126.588038 19.4237288 126.894053 19.7288136 127.200067 19.9830508 127.506082 20.2881356 127.965104 20.440678 128.373123 20.5932203 128.985152 20.8983051 129.597181 20.8983051 130.005201 20.8983051Z" transform="translate(0 .583)" fill="#5BC2E7"/></svg>